<?xml version="1.0" encoding="UTF-8" standalone="no"?>
<svg width="41px" height="51px" viewBox="0 0 41 51" version="1.1" xmlns="http://www.w3.org/2000/svg" xmlns:xlink="http://www.w3.org/1999/xlink" xmlns:sketch="http://www.bohemiancoding.com/sketch/ns">
    <!-- Generator: Sketch 3.3.1 (12002) - http://www.bohemiancoding.com/sketch -->
    <title>Untitled</title>
    <desc>Created with Sketch.</desc>
    <defs></defs>
    <g id="Page-1" stroke="none" stroke-width="1" fill="none" fill-rule="evenodd" sketch:type="MSPage">
        <g id="anarchy" sketch:type="MSLayerGroup" transform="translate(6.000000, 7.000000)" fill="#CC0001">
            <g id="layer1" sketch:type="MSShapeGroup">
                <path d="M19.8518129,0.00812007874 L18.47501,1.31058071 L17.0996595,2.61304134 L17.6370192,1.62563976 C17.8897682,1.16202936 18.0377765,0.769985466 18.0059095,0.665846457 C18.0051789,0.663949139 18.003714,0.660929249 18.0030048,0.659350394 C18.0022868,0.658037046 18.0006662,0.655431709 18.0001002,0.654478346 C17.9998432,0.654193819 17.9989072,0.65313574 17.9986478,0.652854331 C17.9983453,0.652529112 17.9973266,0.651400772 17.9971955,0.651230315 C17.996912,0.650918504 17.995924,0.64981251 17.9957432,0.649606299 C17.994948,0.648732085 17.9934678,0.64705132 17.9928385,0.646358268 C17.9927163,0.646231984 17.9916897,0.645081246 17.9913862,0.644734252 C17.9906343,0.644305044 17.9889668,0.643388683 17.9884816,0.643110236 C17.9879848,0.642851277 17.9863363,0.641903268 17.9855769,0.64148622 C17.9824274,0.640463272 17.9775541,0.63997638 17.9739583,0.639862205 C17.6774217,0.639862205 16.639956,1.47117274 16.411258,1.89197835 C16.2501021,2.1885072 16.153474,2.16766622 15.8884215,1.77667323 C15.7677624,1.59868354 15.6913209,1.49321622 15.6429788,1.47135827 C15.6394644,1.46987098 15.6349331,1.46744431 15.6313602,1.46648622 C15.6312324,1.46648726 15.6300538,1.46647858 15.6299079,1.46648622 C15.6297791,1.46648622 15.6286038,1.46648227 15.6284555,1.46648622 C15.6281823,1.4664884 15.6271845,1.4664858 15.6270032,1.46648622 C15.6267271,1.46650056 15.6259064,1.46649516 15.6255509,1.46648622 C15.624963,1.46646689 15.6231942,1.46646008 15.6226462,1.46648622 C15.6209327,1.4668224 15.6181275,1.46764003 15.6168369,1.46811024 C15.6151397,1.46891471 15.6124312,1.47055198 15.6110276,1.47135827 C15.6105215,1.47162294 15.6086142,1.47270243 15.608123,1.47298228 C15.6076164,1.47354677 15.6057203,1.47564931 15.6052183,1.47623031 C15.6049204,1.47653584 15.6040602,1.47753394 15.603766,1.47785433 C15.603476,1.47818953 15.6026,1.47912829 15.6023137,1.47947835 C15.6020581,1.47975856 15.6011161,1.48081867 15.6008614,1.48110236 C15.6000606,1.48224738 15.5987273,1.48470243 15.5979567,1.48597441 C15.5977127,1.48652314 15.5967456,1.48866077 15.5965044,1.48922244 C15.5674012,1.54627357 15.5602674,1.7052104 15.5572917,1.97480315 C15.5507239,2.5698024 15.4675771,2.64027403 14.8761518,2.54320866 C13.3798011,2.29762838 7.68021268,4.03052973 6.42653245,5.11240157 C6.07449244,5.41619906 5.11371825,6.39806754 4.29161659,7.29507874 C3.03438107,8.66687887 2.57202106,9.44716309 1.38261218,12.2093504 C-0.026467891,15.4816896 -0.0308674327,15.5009751 0.0711638622,17.4711614 C0.156363306,19.1163107 0.358463377,19.9103749 1.27659255,22.1970472 C1.88347796,23.7085538 2.61335312,25.2206782 2.89738582,25.5587598 L3.41296074,26.1742618 L2.4123097,28.4316437 C1.87866629,29.6348502 1.48252857,30.6763687 1.51041667,30.7978346 C1.51066521,30.7984053 1.51160711,30.8005412 1.51186899,30.8010827 C1.51211949,30.8016393 1.51293632,30.8035039 1.51332131,30.8043307 C1.51353022,30.8046108 1.51455065,30.8057053 1.51477364,30.8059547 C1.68623823,30.9976894 4.24312106,29.0677621 4.55303486,28.5128445 C4.7112345,28.2295803 4.90760215,27.9980315 4.98873197,27.9980315 C4.98904893,27.9980315 4.9898455,27.9980149 4.99018429,27.9980315 C4.99067088,27.9980175 4.99258098,27.9980294 4.99308894,27.9980315 C5.09963187,28.0186869 5.88205652,28.5567781 6.75475761,29.2111713 C8.74352881,30.7024439 11.7281405,32.4001068 12.9068009,32.7109252 C13.3900389,32.8383587 14.7479695,32.9546097 15.9247296,32.9691437 C18.0306175,32.9951524 18.0870012,32.9796372 19.4901843,31.965502 C20.2742746,31.3988093 21.3292383,30.5169522 21.8356871,30.005315 L22.7564603,29.0747539 L23.1761819,30.3772146 C23.3895308,31.0406528 23.633201,31.5933072 23.7425881,31.6715551 C23.7466993,31.6743744 23.7519453,31.6766215 23.7556591,31.6780512 C23.7558064,31.6780403 23.7569817,31.6780543 23.7571114,31.6780512 C23.7587575,31.678483 23.7614577,31.6793561 23.7629207,31.6796752 C23.7630699,31.679856 23.7642438,31.6811495 23.764373,31.6812992 C23.7645054,31.6812977 23.7656599,31.6813096 23.7658253,31.6812992 C23.859664,31.6812982 24.1701337,31.4024274 24.4556791,31.0625492 C24.8914148,30.5438968 24.9354999,30.3304902 24.7316206,29.7308563 C24.552494,29.2040162 24.477252,28.9291621 24.522486,28.8652559 C24.5235391,28.8638954 24.5256681,28.8615344 24.5268429,28.8603839 C24.5742421,28.818227 24.7150836,28.9344582 24.9596354,29.181939 C25.2012737,29.4264716 25.3191206,29.5404842 25.3764523,29.5213583 C25.3765945,29.5213739 25.3777782,29.5213551 25.3779046,29.5213583 C25.3786613,29.5209415 25.3803311,29.5199941 25.3808093,29.5197343 C25.3843125,29.5177007 25.3881625,29.5143243 25.3909756,29.5116142 C25.391253,29.5113299 25.3921542,29.5102843 25.3924279,29.5099902 C25.3926974,29.5096861 25.3936144,29.5086806 25.3938802,29.5083661 C25.3941423,29.5080419 25.3950741,29.5070763 25.3953325,29.5067421 C25.4263848,29.4647297 25.4299462,29.3471474 25.4301883,29.1559547 C25.4306814,28.7688465 25.6322272,28.9045992 26.3132011,29.7519685 C26.7980518,30.3552849 27.498762,31.0598443 27.8715445,31.3175197 L28.5497796,31.7868602 L28.3696915,31.142126 C28.2708805,30.787521 27.6749565,29.3443374 27.0451723,27.9363189 C26.4153889,26.5282983 25.9007412,25.2697723 25.9007412,25.1397638 C25.9007407,25.0097557 26.5883372,23.6762299 27.4285857,22.175935 C28.9129703,19.5255164 28.9550876,19.3976079 28.9564303,17.6855315 C28.9573486,16.5145943 28.7520133,15.1919969 28.3435497,13.7407972 C27.8384254,11.9461809 27.49347,11.2548205 26.4046975,9.86427165 C24.8935331,7.93425184 22.3236047,5.57163893 20.394982,4.33774606 C19.3255698,3.65355717 19.1194741,3.41365044 19.2912159,3.05477362 C19.4074279,2.81193935 19.5800462,2.02674759 19.6760817,1.31058071 L19.8518129,0.00812007874 L19.8518129,0.00812007874 Z M18.380609,5.33489173 C18.3816988,5.33474414 18.3824173,5.33502945 18.3835136,5.33489173 C18.383641,5.3348855 18.3848474,5.33489017 18.3849659,5.33489173 C18.3850849,5.33489433 18.3862905,5.33489693 18.3864183,5.33489173 C18.3867083,5.33489745 18.3877219,5.33489797 18.3878706,5.33489173 C18.3890826,5.33490213 18.3910076,5.33487094 18.3922276,5.33489173 C18.3923777,5.33488706 18.3933908,5.33488706 18.3936799,5.33489173 C18.3938309,5.33487718 18.3948445,5.33488654 18.3951322,5.33489173 C18.3963378,5.33489953 18.3982757,5.33487302 18.3994892,5.33489173 C18.3997759,5.33489537 18.4007886,5.33490317 18.4009415,5.33489173 C18.4010995,5.33487978 18.4021085,5.33488757 18.4023938,5.33489173 C18.4035919,5.33489693 18.4055443,5.3348751 18.4067508,5.33489173 C18.4070352,5.33489485 18.4080428,5.33490109 18.4082031,5.33489173 C18.4136773,5.3345742 18.4185358,5.33500294 18.4241787,5.33489173 C18.7324083,5.32882337 19.2971191,5.6175188 20.3891727,6.31254921 C22.5621422,7.69551997 24.5184594,9.74368913 25.1876502,11.3356299 C26.0861218,13.4730145 26.3004541,15.9585012 25.5783253,15.8617618 C25.4316843,15.8421167 24.537236,15.7341235 23.5900942,15.6230315 C22.6576921,15.5136685 21.8382692,15.3635829 21.7485477,15.2868602 C21.7484199,15.2867173 21.7472371,15.285402 21.7470954,15.2852362 C21.7468081,15.284939 21.745907,15.2839074 21.745643,15.2836122 C21.4919999,14.9999827 17.9013421,6.36923542 17.9013421,6.0429626 C17.9013426,5.85560991 18.0412723,5.57304156 18.2121394,5.4144685 C18.2561404,5.37363269 18.3119575,5.34418526 18.380609,5.33489173 L18.380609,5.33489173 Z M12.633764,5.7538878 C12.635234,5.75362691 12.6367207,5.75411438 12.638121,5.7538878 C12.6386657,5.75385557 12.6404666,5.7538483 12.6410256,5.7538878 C12.641206,5.75389195 12.6423032,5.75389507 12.642478,5.7538878 C12.6430152,5.75385973 12.6448119,5.75385454 12.6453826,5.7538878 C12.6455639,5.75389143 12.646663,5.75389351 12.6468349,5.7538878 C12.6469613,5.75388728 12.648146,5.75388416 12.6482873,5.7538878 C12.6495342,5.75388468 12.6514735,5.7538535 12.6526442,5.7538878 C12.6527888,5.75388624 12.6538056,5.75388468 12.6540966,5.7538878 C12.6590698,5.75350531 12.6636503,5.75356559 12.6671675,5.7538878 C12.6688466,5.75422871 12.6718451,5.75517506 12.6729768,5.75551181 C12.6731422,5.75550402 12.6742966,5.75551285 12.6744291,5.75551181 C12.6745629,5.755662 12.6757545,5.75696589 12.6758814,5.75713583 C12.6762737,5.75755313 12.6770976,5.75849532 12.6773337,5.75875984 C12.6776019,5.75904099 12.6785244,5.76008868 12.6787861,5.76038386 C12.6787782,5.7605408 12.6787898,5.76186392 12.6787861,5.76200787 C12.6854133,5.87583449 11.8683392,7.73344398 10.8357873,9.94872047 L8.9216246,14.0558563 L8.06039663,14.0071358 C7.58644229,13.9803726 6.65115046,13.9153392 5.98212139,13.8625984 L4.76507412,13.7667815 L5.72215545,11.9105315 C7.1455763,9.1497728 8.72260745,7.48146118 10.8415966,6.49606299 C11.700597,6.09659877 12.4471016,5.78703591 12.633764,5.7538878 L12.633764,5.7538878 Z M16.6073217,8.57805118 L17.4903345,11.5061516 C18.5164084,14.910972 18.540438,15.0932531 17.8708433,14.4245079 C17.641253,14.1952088 17.5154065,14.07252 17.4641927,14.0639764 C17.4636922,14.0639738 17.4617793,14.0639644 17.4612881,14.0639764 C17.4606983,14.0639623 17.4591893,14.0639878 17.4583834,14.0639764 C17.4581998,14.06398 17.4572141,14.0639811 17.4569311,14.0639764 C17.4553905,14.0642227 17.4526429,14.0650069 17.4511218,14.0656004 C17.450684,14.0658337 17.4489738,14.0667874 17.4482171,14.0672244 C17.4480229,14.0674422 17.4470595,14.0685158 17.4467648,14.0688484 C17.4462011,14.0694362 17.4445842,14.071254 17.4438602,14.0720965 C17.4435985,14.0723818 17.4426676,14.0734326 17.4424079,14.0737205 C17.4421522,14.0742864 17.4412023,14.0763937 17.4409555,14.0769685 C17.4406214,14.0776981 17.4398546,14.0793861 17.4395032,14.0802165 C17.4395162,14.080373 17.4394995,14.0816992 17.4395032,14.0818406 C17.4395148,14.0820027 17.4395041,14.0833133 17.4395032,14.0834646 C17.4392299,14.084056 17.4382935,14.0861851 17.4380509,14.0867126 C17.4296534,14.1400728 17.4688462,14.2817093 17.5339042,14.5154528 C17.6081201,14.7820938 17.6474025,14.9989869 17.6370192,15.05625 C17.6366693,15.0576214 17.6358616,15.0601165 17.6355669,15.061122 C17.6355711,15.061265 17.6355516,15.062587 17.6355669,15.0627461 C17.6353331,15.0632933 17.6344989,15.0651657 17.6341146,15.0659941 C17.6339324,15.0662113 17.6329416,15.0673063 17.6326623,15.0676181 C17.6324048,15.0679159 17.6314697,15.0689521 17.6312099,15.0692421 C17.631058,15.0692291 17.6298868,15.0692473 17.6297576,15.0692421 C17.6294588,15.0692317 17.6284363,15.0692297 17.6283053,15.0692421 C17.628158,15.0692447 17.6271616,15.0692406 17.626853,15.0692421 C17.626351,15.0692712 17.6244605,15.0692452 17.6239483,15.0692421 C17.5828845,15.0475629 17.2307557,14.9872478 16.8425982,14.9360728 C16.4544406,14.8848943 15.5966778,14.7770253 14.9356971,14.6973425 L13.7331731,14.5528051 L15.1709736,11.5662402 L16.6073217,8.57805118 L16.6073217,8.57805118 Z M4.30178285,15.6425197 C4.30431756,15.6423279 4.30647212,15.6425753 4.30904447,15.6425197 C4.31162705,15.6424641 4.3136854,15.6424376 4.31630609,15.6425197 C4.81297849,15.6581274 7.56881131,16.356304 7.69586338,16.498376 C7.69611295,16.4986249 7.69708101,16.4997194 7.69731571,16.5 C7.69773537,16.5007541 7.69840646,16.5023718 7.69876803,16.503248 C7.74087705,16.6217461 7.3229429,17.7091834 6.75185296,18.9603839 C5.41475452,21.8898484 5.30043085,22.0822187 5.09910857,21.7179626 C4.2345154,20.153642 3.65542537,15.6914007 4.30178285,15.6425197 L4.30178285,15.6425197 Z M12.6453826,17.528002 C12.6481511,17.5277442 12.6513127,17.5282161 12.6540966,17.528002 C12.6544474,17.5279749 12.6551906,17.5280124 12.6555489,17.528002 C12.6570049,17.5280087 12.6598979,17.5279843 12.6613582,17.528002 C12.6617183,17.5279957 12.6624578,17.5280233 12.6628105,17.528002 C12.6685445,17.5276527 12.6744333,17.5281761 12.6802384,17.528002 C12.7573491,17.525692 12.8398239,17.5391929 12.9358474,17.5604823 C13.2731239,17.6352618 14.7908751,17.9661562 16.308143,18.2961614 L19.0675581,18.8970472 L20.1088742,21.8024114 L21.1501903,24.7093996 L20.6433293,25.0260827 C20.3644799,25.2004105 19.5785325,25.4860736 18.8961839,25.6610728 L17.6558994,25.9793799 L18.2658754,26.4276083 L18.8758514,26.8742126 L18.3297776,27.0544783 C18.0297206,27.1533214 16.7262515,27.2940838 15.4323918,27.3679134 C13.1416837,27.4986235 13.031413,27.4795007 11.2700321,26.601378 C9.20023699,25.569496 7.31607771,24.380122 7.31680689,24.1068898 C7.31680875,24.1062895 7.3167962,24.1044982 7.31680689,24.1036417 C7.33195567,23.9782869 7.97204377,22.8391888 8.75315505,21.552313 C9.43855704,20.4231185 9.97288808,19.6218696 10.0558894,19.5872539 C10.056468,19.5869193 10.0581764,19.5859469 10.0587941,19.5856299 C10.058927,19.5856299 10.0600861,19.5856232 10.0602464,19.5856299 C10.0603872,19.5856299 10.0614036,19.5856341 10.0616987,19.5856299 C10.0619585,19.5859256 10.0628959,19.5869504 10.063151,19.5872539 C10.0634782,19.5872571 10.0645248,19.5872628 10.0646034,19.5872539 C10.065004,19.5880459 10.0658024,19.5898544 10.0660557,19.590502 C10.0660562,19.5910508 10.0660747,19.593169 10.0660557,19.59375 C10.0666329,19.6004285 10.0647112,19.6110477 10.0602464,19.6262303 C9.98880926,19.8691509 9.8550937,20.5203994 9.76252003,21.0732283 C9.67650808,21.5868705 9.6437167,21.8326441 9.69426082,21.8901083 C9.69578982,21.8915613 9.69866659,21.8938807 9.70007011,21.8949803 C9.7005553,21.8952573 9.70247284,21.8963398 9.70297476,21.8966043 C9.70587197,21.8982574 9.70994173,21.900581 9.71314103,21.9014764 C9.71326744,21.9014748 9.7144516,21.9014857 9.71459335,21.9014764 C9.71508598,21.9014738 9.71699979,21.9014894 9.717498,21.9014764 C9.71855854,21.9015897 9.72053091,21.9014613 9.72185497,21.9014764 C9.72365678,21.9014634 9.72611853,21.9015746 9.72766426,21.9014764 C9.77996186,21.8970102 9.86991019,21.8242257 10.0021534,21.7017224 C10.2263527,21.4940366 10.8396302,20.4467236 11.3658854,19.3745079 C12.0654388,17.9492015 12.2937827,17.5607161 12.6453826,17.528002 L12.6453826,17.528002 Z M25.2457432,18.8385827 C25.2687531,18.8379024 25.2880339,18.8431362 25.3023838,18.8515748 C25.3046141,18.8529457 25.3076266,18.8548436 25.3096454,18.8564469 C25.3112985,18.8578152 25.3139476,18.8597879 25.3154547,18.8613189 C25.3160459,18.8619441 25.3177915,18.8639152 25.3183594,18.8645669 C25.3186378,18.864899 25.3195394,18.8658521 25.3198117,18.8661909 C25.3222107,18.8692992 25.3251414,18.8739181 25.3270733,18.8775591 C25.3510968,18.9248431 25.3371392,19.0158992 25.2893129,19.1552657 C25.127452,19.6269366 25.0476616,19.6409748 24.3714443,19.3160433 C24.1952033,19.2313565 24.0977224,19.1759175 24.0766226,19.1390256 C24.0764571,19.1387205 24.075325,19.137704 24.0751703,19.1374016 C24.0748817,19.1368024 24.0739643,19.1347423 24.0737179,19.1341535 C24.0736055,19.1338615 24.0738202,19.132819 24.0737179,19.1325295 C24.0734433,19.1316689 24.0724455,19.1301192 24.0722656,19.1292815 C24.0722164,19.1290045 24.0723047,19.1279319 24.0722656,19.1276575 C24.0722373,19.1273857 24.0722838,19.1263027 24.0722656,19.1260335 C24.0722582,19.1257663 24.0722628,19.124674 24.0722656,19.1244094 C24.0722791,19.1241475 24.0722415,19.1230453 24.0722656,19.1227854 C24.0723,19.1225282 24.0722205,19.1214161 24.0722656,19.1211614 C24.0723762,19.1206563 24.073565,19.1200332 24.0737179,19.1195374 C24.0738049,19.1192921 24.0736208,19.1181566 24.0737179,19.1179134 C24.0740409,19.117191 24.0747529,19.1153669 24.0751703,19.1146654 C24.0753199,19.1144336 24.0764627,19.1132705 24.0766226,19.1130413 C24.0768034,19.1128163 24.0778839,19.1116403 24.0780749,19.1114173 C24.0784783,19.1109761 24.0790825,19.1102257 24.0795272,19.1097933 C24.1021166,19.0890438 24.1741909,19.078039 24.2930188,19.0724409 C24.5088625,19.0622717 24.8537171,18.9806266 25.0598458,18.8921752 C25.1391375,18.8581514 25.200934,18.8399079 25.2457432,18.8385827 L25.2457432,18.8385827 Z M24.1942608,20.105315 C24.2054151,20.1050769 24.2174148,20.1054818 24.2291166,20.105315 C24.2579999,20.1049034 24.2883077,20.1054163 24.320613,20.105315 C24.3396684,20.1052552 24.3584254,20.105315 24.3787059,20.105315 C24.9022038,20.1053144 24.9453827,20.1696878 24.724359,20.6314961 C24.4213531,21.2645972 24.1193442,21.3065607 23.9255809,20.7419291 C23.7370177,20.1924464 23.7295019,20.1152295 24.1942608,20.105315 L24.1942608,20.105315 Z" id="path2232"></path>
            </g>
        </g>
    </g>
</svg>