<?xml version="1.0" encoding="windows-1252"?>
<!-- Generator: Adobe Illustrator 16.0.1, SVG Export Plug-In . SVG Version: 6.00 Build 0)  -->
<!DOCTYPE svg PUBLIC "-//W3C//DTD SVG 1.1//EN" "http://www.w3.org/Graphics/SVG/1.1/DTD/svg11.dtd">
<svg version="1.1" id="Layer_1" xmlns="http://www.w3.org/2000/svg" xmlns:xlink="http://www.w3.org/1999/xlink" x="0px" y="0px" width="43px" height="51px" viewBox="0 0 43 51" enable-background="new 0 0 43 51" xml:space="preserve">
<path fill="#0775C8" d="M15.92,30.613c1.805-0.57,3.432-1.408,3.432-1.408s0.354,0.393,0.691,0.838l1.443,1.822  c0,0,1.504-0.449,3.299-1.234l-7.947-4.633l-0.992,4.637C15.871,30.626,15.895,30.621,15.92,30.613"/>
<path fill="#0775C8" d="M30.27,36.057c-0.043-0.002,0.086-0.354,0.056-0.354c-3.285-0.119-9.533-0.113-10.148-0.563  c-0.439-0.328,0.236-1.996,0.678-2.914c0,0-0.684-0.91-1.773-2.222c-0.109,0.111-1.787,1.961-1.955,4.836  c-0.914,0.252-1.035,0.435-2.836,0.578c-1.084,0.084-5.967,0.229-5.967,0.229l-0.271,0.237c-0.293,0.023-1.916,0.078-1.916,0.078  s0.17,0.539,0.521,0.918c0.436,0.033,10.387,0.248,11.703-0.598c0.512,0.424,1.432,0.661,3.244,0.586  c0.342-0.015,6.197,0.053,6.9,0.049c2.479-0.019,7.509-0.324,7.509-0.324l0.45-0.487c-0.543,0-3.196-0.035-4.846-0.035  C31.168,36.07,30.371,36.068,30.27,36.057"/>
<path fill="#0775C8" d="M4.102,19.805c0,0,0.307-0.268,0.824-0.68H3.415C3.732,19.432,4.102,19.805,4.102,19.805 M31.391,13.479  l-0.885-1.146l-11.389,5.234H22.5L31.391,13.479z M29.201,28.266l-5.051-2.931h-3.385l6.762,3.918  C28.275,28.837,28.865,28.477,29.201,28.266 M37.395,23.604c-0.719-0.778-2.664-2.386-2.664-2.386s-2.162,1.494-3.817,2.285  c0,0,1.437-1.328,1.938-1.779c0.705-0.637,2.776-2.613,2.776-2.613l-0.037-0.045l-18.729,0.059L19.27,8.071  c-1.004,0.279-2.461,0.742-4.049,1.434C14.91,9.64,14.612,9.78,14.313,9.919l-1.99,9.206H6.23c-1.883,1.869-3.104,3.531-3.104,3.531  l1.043,1.125h2.416c0.72-0.629,1.765-1.461,3.194-2.434l-0.357,0.947c-0.609,0.467-1.195,0.976-1.746,1.486h3.607l-1.369,6.086  l1.664,1.631l0.117,0.133c0,0,1.102-0.188,2.479-0.53l1.646-7.317l21.534-0.062C37.385,23.658,37.404,23.615,37.395,23.604   M29.346,28.35c-0.17,0.301-0.436,0.801-0.607,1.265c-0.034,0.094-0.069,0.188-0.102,0.284l3.588,2.078  c0.459-0.237,0.994-0.522,1.603-0.873c0.047-0.022,0.092-0.054,0.137-0.08L29.346,28.35z M3.62,17.355l0.367,0.211h3.03  c0.054-0.033,0.109-0.07,0.162-0.105l-2.857-1.662C4.07,16.299,3.84,16.818,3.62,17.355 M4.247,27.529  c0.438-0.549,1.086-1.334,1.884-2.193h2.887L4.247,27.529z"/>
<path fill="#0775C8" d="M28.637,29.898c-0.242,0.721-0.395,1.439-0.395,1.439l2.15,1.492c0,0,0.662-0.258,1.828-0.854L28.637,29.898  "/>
<line fill="none" x1="41.07" y1="26.41" x2="39.592" y2="25.335"/>
<path fill="#0775C8" d="M39.592,25.335h-2.117c-0.32,0.281-0.697,0.608-1.1,0.935c-0.746,0.603-1.799,1.217-1.799,1.217  c0.43-0.514,1.092-1.368,1.666-2.149H25.844l8.961,5.181c1.025-0.644,1.885-1.271,2.58-1.795c0,0-0.742,1.118-1.285,1.937  c0.75,0.7,1.545,1.325,1.545,1.325l3.426-5.571"/>
<path fill="#0775C8" d="M20.83,8.09l-1.961,8.818l10.475-4.822l-0.4-0.459l-3.286,1.654l-1.431-2.605l-3.983,1.721  c0.484-0.477,0.732-0.682,1.926-1.385C21.666,9.756,21.115,8.64,20.83,8.09"/>
<path fill="#0775C8" d="M9.648,15.948c0.045,0.014,0.152,0.084,0.193,0.104c0,0-0.006,0.004-0.008,0.006l1.471,0.852l1.461-6.225  c-1.896,1-3.504,2.09-4.896,3.318l-0.088-0.041c0.346-0.646,1.35-1.697,2.492-2.691c1.062-0.924,2.529-1.729,2.529-1.729  l0.246-1.447c-1.918,0.693-4.049,1.703-5.711,3.416c-0.634,0.65-1.201,1.354-1.718,2.104L9.648,15.948"/>
<polyline fill="#0775C8" points="34.229,17.568 32.98,16.191 33.127,15.729 32.721,15.204 27.578,17.568 34.229,17.568 "/>
<polyline fill="#0775C8" points="3.811,28.511 6.766,31.462 8.252,30.441 9.271,25.998 3.811,28.511 "/>
</svg>