<?xml version="1.0" encoding="windows-1252"?>
<!-- Generator: Adobe Illustrator 16.0.1, SVG Export Plug-In . SVG Version: 6.00 Build 0)  -->
<!DOCTYPE svg PUBLIC "-//W3C//DTD SVG 1.1//EN" "http://www.w3.org/Graphics/SVG/1.1/DTD/svg11.dtd">
<svg version="1.1" id="Layer_1" xmlns="http://www.w3.org/2000/svg" xmlns:xlink="http://www.w3.org/1999/xlink" x="0px" y="0px" width="43px" height="51px" viewBox="0 0 43 51" enable-background="new 0 0 43 51" xml:space="preserve">
<path fill="#77C31E" d="M32.354,27.374c0.578-3.545-1.08-7.094-3.313-9.173c-2.545-2.198-6.479-3.316-9.869-2.432  c-0.773,0.118-1.237,0.461-1.852,0.655c-2.626,1.196-4.593,3.702-5.4,6.48c-0.731,3.274,0.387,6.864,2.353,9.14  c1.926,1.965,4.085,3.045,6.788,3.584c2.197,0.041,4.738-0.229,6.668-1.465C30.08,32.616,31.812,30.381,32.354,27.374z   M16.97,29.303c-0.157-0.076-0.274-0.311-0.386-0.311c-1.004,0.195-2.236,0.154-2.933,0.771l-0.112,0.075  c-0.273-0.151-0.543-0.385-0.543-0.651c-1.08-1.66-0.115-2.896-0.271-4.476L13.46,22.9c0.269-0.695,1.078-0.961,1.697-1.119  c0.075-1.234,0.424-2.391,0.842-3.471c0.196-0.229,0.545-0.346,0.584-0.656c0-0.114,0.037-0.191,0.037-0.269  c1.312-0.579,3.01-1.621,4.625-1.083c0.854,0,1.235,0.542,2.01,0.542l0.849-0.578c0.309,0.115,0.539,0.23,0.658,0.462v0.811  c-0.08,0.075-0.199,0.114-0.236,0.114c-0.229,0-0.502-0.114-0.81-0.114c-0.426,0.27-1.002,0.424-1.002,1.04  c0.037,0.155,0.113,0.271,0.113,0.345c-0.076,0.119-0.188,0.119-0.229,0.119l-1.192-0.617c-0.082,0.039-0.195,0.075-0.27,0.153  l-0.58,1.004c0.115,0.153,0.152,0.233,0.345,0.269c0.19-0.036,0.577-0.269,0.696,0l-0.926,1.387  c-0.231-0.036-0.272-0.271-0.387-0.385c-0.15-0.038-0.229-0.038-0.383,0c-0.311-0.075-0.386-0.308-0.463-0.5h-2.047  c0.154-0.233,0.311-0.462,0.311-0.771c-0.037-0.193-0.117-0.31-0.192-0.31c-0.501,0.039-0.925,0.271-1.081,0.695  c0.156,0.196,0,0.04,0,0.196c-0.232,0.189-0.501-0.043-0.579,0.189c-0.076,0.308-0.076,0.614-0.269,0.772  c0.078,0.27-0.078,0.614,0.078,0.771c0.229,0.152,0.614,0.152,0.77,0.384c0.311,1.005,1.236,1.929,0.693,3.085l0.196,1.005  l-0.312,0.614l0.695,1.658C17.508,28.879,17.24,29.303,16.97,29.303z M24.523,19.972c-0.229,0.462-0.73,0.578-0.92,1  c-0.465-0.152-0.854,0-1.275,0.079c-0.23,0.156-0.27-0.112-0.27-0.193c0.578-0.463,1.271-1.464,2.192-1.388L24.523,19.972z   M29.229,28.454v0.616c-0.035,0.232-0.115,0.232-0.387,0.504c-0.461,0.269-1.039,0.808-1.578,0.382  c-0.117-0.961-0.811-1.58-1.08-2.312c-0.115-0.076-0.156-0.115-0.27-0.115c-0.152,0.039-0.271,0.115-0.271,0.271  c0.771,0.966,0.771,2.468,2.047,2.773c0,0.155-0.041,0.229-0.121,0.274l-1.653,1.191c-0.312,0.344-0.465,0.965-0.812,1.541  c-0.619,0.389-0.809,1.197-1.5,1.506l-1.274,0.15l-0.656-0.15c-0.074-0.232,0.076-0.429,0-0.773c0.076-1.387-0.426-2.774,0-4.125  c-0.154-0.422-0.461-0.729-0.771-0.885c-0.423-0.232-1-0.078-1.156-0.502l-0.308-1.002c0.035-0.311,0.192-0.428,0.269-0.812  c0.428-0.424,0.851-0.849,1.43-0.849l1.193-0.771c0.146,0,0.354,0.201,0.416,0.037h-0.07l0.07-0.002v-0.006  c-0.031-0.017-0.055-0.029-0.07-0.029l0.07-0.008l-0.416-0.726l0.385-0.653c0.193-0.115,0.541,0.037,0.578-0.156l-0.084-0.35h-0.646  h0.646l-0.064-0.267h-0.082l-0.039-0.04c0-0.037,0-0.114-0.037-0.114h0.121v-0.006c-0.022-0.007-0.045-0.013-0.045-0.036  l0.035-0.017l-0.074-0.291c0-0.229,0.117-0.269,0.232-0.385c0.037-0.038,0.195-0.038,0.195-0.038l0.535,0.194  c0.117-0.156,0.27-0.156,0.389-0.194c0.15,0.038,0.188,0.076,0.188,0.154c0.08,0.269-0.188,0.269-0.188,0.464  c0.01,0.02,0.02,0.042,0.031,0.065l0.006-0.106l0.102,0.23h0.09c-0.026,0.027-0.047,0.051-0.062,0.07l0.021,0.046l0.004,0.002v-0.04  v0.04l0.02,0.007l0.139-0.007v0.075c0.012,0,0.023,0.003,0.041,0.003l0.353-0.306l-0.009-0.006c0.004,0,0.009,0,0.009,0l0.03-0.024  V22.82l0.08,0.059l0.015-0.01c-0.013-0.019-0.017-0.039-0.017-0.048c0.017,0.015,0.021,0.025,0.025,0.037l0.938-0.81  c0.232,0.232,0.695,0.308,0.924,0.118c0.464-0.964,1.044-2.159,0.464-3.242c-0.269-0.153-0.652-0.19-0.69-0.499  c-0.037-0.192,0.038-0.229,0.229-0.229c0.194,0.037,0.428,0,0.733,0c1.502,0.807,2.353,2.312,3.119,3.584  c1.006,2.429,1.273,5.166,0.195,7.673c-0.117,0.037-0.195,0-0.195,0l-0.189-0.541c-0.041-0.113-0.153-0.189-0.229-0.387  c-0.264-0.303-0.909-0.308-1.299-0.084l0.062,0.006h-0.08v0.007H29.229z"/>
<path fill="#77C31E" d="M32.699,32.926c-0.502,0-0.887-0.191-1.389-0.269c-0.271,0.075-0.424,0.269-0.58,0.501  c0.694,0.848,1.934,1.656,2.235,3.004c0.927,1.504,2.313,2.396,4.091,2.777C35.672,36.934,35.244,34.006,32.699,32.926z"/>
<path fill="#77C31E" d="M29.77,34.24c-0.11,0-0.153,0-0.27,0.072c-0.039,0.082-0.039,0.115-0.119,0.271  c-0.037,0.348,0.275,0.502,0.502,0.654c0.658,1.352,2.049,2.236,3.549,2.854l0.076-0.077v-0.078  C32.625,36.516,31.812,34.547,29.77,34.24z"/>
<path fill="#77C31E" d="M23.176,23.057h0.053C23.207,23.049,23.186,23.045,23.176,23.057z"/>
<polygon fill="#77C31E" points="22.744,25.4 22.744,25.404 22.752,25.404 "/>
<path fill="#77C31E" d="M23.371,23.016l-0.041-0.038h-0.154c0.049,0.038,0.076,0.064,0.092,0.081h0.104  c-0.033,0-0.099,0.025-0.113,0.063l0.148-0.038v-0.025L23.371,23.016z"/>
<path fill="#77C31E" d="M25.143,22.953l-0.031,0.024c0.015,0,0.021,0,0.031,0V22.953z"/>
<path fill="#77C31E" d="M25.258,22.91c-0.006-0.012-0.018-0.026-0.021-0.037l-0.014,0.01L25.258,22.91L25.258,22.91z"/>
<polygon fill="#77C31E" points="28.354,28.338 28.381,28.342 28.381,28.338 "/>
<rect x="23.021" y="25.37" fill="#77C31E" width="0.133" height="0.019"/>
<path fill="#77C31E" d="M23.146,23.057c-0.015-0.002-0.027-0.002-0.041-0.005v0.007h0.041V23.057z"/>
<path fill="#77C31E" d="M28.188,28.299h0.06c-0.013,0-0.021,0.004-0.021-0.037H28.15C28.172,28.275,28.188,28.29,28.188,28.299z"/>
<polygon fill="#77C31E" points="28.27,28.329 28.27,28.338 28.344,28.338 28.354,28.338 "/>
<path fill="#77C31E" d="M32.893,30.54c-0.268,0.034-0.422,0.034-0.539,0.188c-0.074,0.076-0.117,0.119-0.117,0.271  c0,0.113,0,0.27,0.117,0.389l2.931,1.387h1.659c0.154-0.039,0.229-0.039,0.154-0.271C35.783,31.77,34.588,30.574,32.893,30.54z"/>
<path fill="#77C31E" d="M37.602,29.609c-1.123-1-2.778-1.078-4.244-0.809c-0.116,0.078-0.272,0.113-0.272,0.113  c0,0.154-0.188,0.273-0.188,0.543c1.387,0.498,2.391,1.232,3.584,2.045c0.467,0.307,1.045,0.459,1.66,0.654l1.852-0.271  C39.408,30.805,38.252,30.42,37.602,29.609z"/>
<path fill="#77C31E" d="M2.395,27.529l4.164,1.271c1.038,0.078,2.042-0.154,3.045-0.426c0.385-0.15,0.807-0.461,0.926-0.848  l-0.271-0.73C7.791,27.834,4.432,25.178,2.395,27.529z"/>
<path fill="#77C31E" d="M38.408,26.527c0-0.116,0-0.192,0-0.231c-1.586,0.039-3.24-0.616-4.781,0.231  c-0.119,0.076-0.154,0.423-0.119,0.617l0.771,0.229C35.672,27.374,37.172,27.145,38.408,26.527z"/>
<path fill="#77C31E" d="M23.254,25.37h-0.1c0.002,0.002,0.002,0.012,0.002,0.014l0.25-0.014l-0.211,0.067  c0.066,0.062,0.191,0.119,0.254,0.201l0.42,0.734l1.734,0.615l0.039-0.041l0.119-0.072c0-0.221-0.152-0.332-0.339-0.428H25.41  v-0.008c-0.174-0.084-0.367-0.15-0.498-0.265c-0.023,0-0.053,0.009-0.08,0.015l0,0c0.021,0.021,0.039,0.049,0.039,0.063  c-0.004,0.002-0.004,0.006-0.006,0.009c0.012,0.008-0.016,0.016,0,0c-0.002-0.007-0.012-0.009-0.033-0.009v-0.063l0,0  c-0.16,0.028-0.381,0.125-0.58,0.024l-0.15-0.961c-0.231-0.194-0.651-0.151-0.848,0c-0.031,0.019-0.049,0.03-0.068,0.047  l0.068-0.012V25.37L23.254,25.37z"/>
<path fill="#77C31E" d="M10.377,25.37c0-0.113,0-0.154-0.121-0.19c-1.004-0.117-2.116-0.271-3.199-0.271  c-0.807,0.151-1.735,0.271-2.275,0.729l2.813,0.656C8.563,26.334,9.717,25.947,10.377,25.37z"/>
<path fill="#77C31E" d="M26.299,25.947c-0.078,0.193,0.117,0.349,0.268,0.349l0.121-0.078  C26.605,26.064,26.494,25.947,26.299,25.947z"/>
<path fill="#77C31E" d="M38.408,23.868c-1.623-0.464-3.393-0.542-4.781,0.114c-0.195,0.271-0.039,0.732-0.119,1.121l3.857,0.689  c1.121-0.115,2.582-0.307,3.24-1.35C39.947,24.213,39.1,24.29,38.408,23.868z"/>
<path fill="#77C31E" d="M7.057,20.783C5.94,19.74,4.202,19.82,2.856,20.125c0,0.233-0.156,0,0,0.233  c2.043,1.042,3.43,2.814,5.898,3.353l0.113-0.038l1.661-0.346c0.114-0.155,0.157-0.424,0.114-0.619  C9.252,22.361,8.141,21.67,7.057,20.783z"/>
<path fill="#77C31E" d="M25.561,23.171c-0.059,0.097-0.119,0.196-0.225,0.271c-0.078,0.117,0.035,0.31,0.195,0.27l0.689-0.27  l-0.074-0.539c0,0-0.119-0.041-0.232-0.118c-0.182,0.069-0.26,0.214-0.34,0.363l0.029,0.022H25.561z"/>
<path fill="#77C31E" d="M32.967,21.901l0.117,0.733c0,0,0.08,0,0.154,0.074c1.504-0.152,2.621-0.923,3.705-1.925l0.385-0.927  c-1.002,0.156-1.891,1.274-3.203,1.194C33.627,21.358,33.199,21.399,32.967,21.901z"/>
<path fill="#77C31E" d="M6.672,18.854C6.285,18.928,5.94,18.89,5.707,19.2c1.082,0.812,2.16,1.771,3.818,2.313l1.659-0.271  c0.035-0.036,0.112-0.113,0.112-0.271C9.988,20.012,8.638,18.738,6.672,18.854z"/>
<path fill="#77C31E" d="M38.447,17.389c0.039-0.158,0.113-0.272,0.15-0.384c-1.388,0.345-2.929,0.539-4.435,0.925  c-0.927,0.425-1.812,0.96-2.197,1.774c0,0.421,0.154,0.808,0.541,1.079h0.117C35.018,20.125,37.211,19.704,38.447,17.389z"/>
<path fill="#77C31E" d="M11.916,19.2l0.543-0.153c0.11-0.193,0.308-0.309,0.308-0.617c-1.699-0.772-2.238-2.739-3.319-3.973  c-0.73-0.539-1.695-1.119-2.89-1.233c0.925,1.082,1.501,2.468,2.08,3.782C9.447,18.2,10.686,18.7,11.916,19.2z"/>
<path fill="#77C31E" d="M34.742,13.84c-1.115,0.811-2.078,2.007-3.432,2.702c-0.424,0.423-0.771,0.654-0.888,1.116l0.537,0.772  h0.078c1.043-0.346,1.928-1.198,2.7-1.929L34.742,13.84z"/>
<path fill="#77C31E" d="M12.187,16.925l1.274,0.464c0.189,0,0.229,0,0.385-0.04c0.074,0,0.113-0.077,0.152-0.233  c-0.733-1.693-1.965-2.812-4.01-3.431c-0.113,0-0.191,0-0.191,0l1.5,2.585L12.187,16.925z"/>
<path fill="#77C31E" d="M29.461,16.965l0.195-0.04c1.5-1.658,4.01-1.734,4.932-4.01c0.117-0.5,0.117-0.927,0.271-1.312  c0-0.038-0.037-0.038-0.232-0.038c-1.543,1.427-4.432,1.236-5.396,3.432c-0.035,0.54-0.387,0.889-0.387,1.388  C28.92,16.695,29.229,16.811,29.461,16.965z"/>
<path fill="#77C31E" d="M15.658,15.847l0.653-0.231c0.04-0.04,0.114-0.157,0.114-0.27c-1.117-2.084-1.039-4.898-3.315-6.362  c-0.344-0.195-0.501-0.385-0.772-0.425c0.772,1.387,0.658,3.469,1.312,5.242C14.08,14.65,14.812,15.423,15.658,15.847z"/>
<path fill="#77C31E" d="M26.688,15.073c0.033,0.194,0.191,0.35,0.498,0.385c0.117,0,0.351-0.035,0.385-0.113  c0.812-0.963,1.353-2.778,0.851-4.204l-1.812,3.665C26.605,14.884,26.605,14.997,26.688,15.073z"/>
<path fill="#77C31E" d="M17.776,14.997l0.078-0.078l0.115-0.035c0.384-0.775-0.115-1.814-0.536-2.624  c-0.583-0.695-1.277-1.623-2.046-2.003c0.192,0.884,0.538,1.771,0.733,2.813C16.543,13.8,16.851,14.65,17.776,14.997z"/>
<path fill="#77C31E" d="M25.258,14.65l0.113-0.076c0.928-1.659,2.74-3.009,2.701-5.281c-0.193-0.506,0.078-1.122-0.271-1.47  c-0.694,1.159-2.008,2.433-3.012,3.665c-0.496,0.886-0.649,1.927-0.649,2.853l1.039,0.384L25.258,14.65z"/>
<path fill="#77C31E" d="M19.744,14.305c0.037,0,0.116,0,0.156,0.036l0.729-0.232c-0.309-1.542,0.428-3.197,0.693-4.816  c-0.266-0.967-0.422-2.01-1.039-2.7c-0.693,2.194-2.007,4.473-1.041,6.939L19.744,14.305z"/>
<path fill="#77C31E" d="M22.098,14.188h0.076c0.039,0,0.193,0,0.268-0.079c0.156-0.27,0.195-0.694,0.388-1.04  c0.312-1.466,0-3.085-0.769-4.125c-0.117,1.54-0.971,3.43-0.194,4.974C21.941,14.071,21.941,14.109,22.098,14.188z"/>
<polygon fill="#77C31E" points="22.674,25.408 22.744,25.408 22.744,25.404 "/>
<path fill="#77C31E" d="M22.752,25.404h-0.008c0,0.003,0,0.004,0,0.004h0.021C22.764,25.408,22.758,25.407,22.752,25.404z"/>
<path fill="#77C31E" d="M23.156,25.383l-0.137,0.004v0.021v0.039h0.155l0.021-0.01C23.176,25.422,23.162,25.404,23.156,25.383z"/>
<path fill="#77C31E" d="M23.156,25.383c0.006,0.021,0.02,0.039,0.039,0.055l0.211-0.067L23.156,25.383z"/>
<path fill="#77C31E" d="M23.061,23.016c0,0.022,0.021,0.029,0.045,0.036l-0.01-0.053L23.061,23.016z"/>
<path fill="#77C31E" d="M23.176,22.978h0.154l0.041,0.038l0.035,0.043v0.025l0.059-0.014c0.021-0.006,0.043-0.012,0.059-0.012  l-0.059,0.012c-0.023,0.007-0.041,0.014-0.059,0.02v0.045h0.154v-0.042h0.078l0.038-0.036v-0.041h0.037v-0.039h0.037V22.94h0.041  v-0.038h0.037l0.039-0.041c0-0.155,0-0.269,0.075-0.384l-0.852,0.52l0.01,0.053c0.015,0.003,0.027,0.003,0.041,0.005L23.176,22.978z  "/>
<path fill="#77C31E" d="M25.221,22.825c0,0.009,0.004,0.029,0.016,0.048l0.013-0.011C25.24,22.85,25.236,22.84,25.221,22.825z"/>
<path fill="#77C31E" d="M25.246,22.862l-0.01,0.012c0.004,0.01,0.016,0.024,0.021,0.037C25.258,22.898,25.256,22.88,25.246,22.862z"/>
<polygon fill="#77C31E" points="25.264,22.914 25.258,22.911 25.258,22.911 "/>
<path fill="#77C31E" d="M25.299,22.941L25.299,22.941L25.299,22.941z"/>
<polygon fill="#77C31E" points="25.143,22.825 25.143,22.953 25.223,22.884 "/>
<path fill="#77C31E" d="M25.221,23.057l0.037,0.036l-0.115-0.084v0.084h0.037v0.079h0.381c0.004-0.007,0.01-0.015,0.015-0.023  L25.3,22.941v0.016c0.013,0.014,0.025,0.021,0.039,0.021v0.081h0.074v0.035c0.004,0.006,0.006,0.006,0.006,0.008  c0.031,0.01,0.022,0.021,0,0c-0.01-0.002-0.021-0.008-0.045-0.008l-0.035-0.035L25.3,23.016v-0.059  c-0.008-0.007-0.014-0.011-0.016-0.016c-0.022-0.003-0.022-0.011-0.022-0.03l-0.035-0.027l-0.08,0.069v0.024  C25.221,22.98,25.221,22.99,25.221,23.057z"/>
<path fill="#77C31E" d="M25.299,22.941l-0.035-0.027c0.006,0.009,0.016,0.017,0.021,0.027  C25.285,22.941,25.289,22.941,25.299,22.941z"/>
<path fill="#77C31E" d="M25.604,23.171l-0.028-0.022c-0.005,0.009-0.011,0.017-0.015,0.022H25.604z"/>
<path fill="#77C31E" d="M25.418,23.102c0-0.002-0.004-0.002-0.008-0.009v-0.036h-0.074l0.035,0.036  C25.395,23.093,25.408,23.1,25.418,23.102z"/>
<path fill="#77C31E" d="M25.336,23.057v-0.08c-0.014,0-0.025-0.007-0.037-0.021v0.06L25.336,23.057z"/>
<path fill="#77C31E" d="M25.418,23.102C25.439,23.121,25.447,23.109,25.418,23.102L25.418,23.102z"/>
<path fill="#77C31E" d="M25.283,22.941c-0.006-0.01-0.014-0.018-0.021-0.027l-0.004-0.003  C25.258,22.929,25.258,22.937,25.283,22.941z"/>
<path fill="#77C31E" d="M25.299,22.957v-0.016l0,0c-0.01,0-0.014,0-0.016,0C25.285,22.945,25.289,22.95,25.299,22.957z"/>
<path fill="#77C31E" d="M24.613,23.259c0.027,0.013,0.062,0.021,0.104,0.028v-0.076l-0.139,0.007l0.062,0.029  C24.631,23.248,24.627,23.254,24.613,23.259z"/>
<path fill="#77C31E" d="M24.584,23.273l0.057,0.129l0.041-0.039l0.037-0.037v-0.039c-0.043-0.008-0.078-0.016-0.105-0.028  C24.604,23.264,24.594,23.27,24.584,23.273z"/>
<path fill="#77C31E" d="M24.383,23.229l-1.207,0.062c0.195,0.114,0.504,0,0.656,0.074v0.04h0.076c0,0.074,0.037,0,0.037,0.074h0.115  v0.041h0.35v-0.041h0.113c0-0.074,0.037,0,0.037-0.074h-0.188L24.383,23.229z"/>
<path fill="#77C31E" d="M24.531,23.193l0.025,0.016l-0.021-0.046c-0.011,0.006-0.015,0.013-0.019,0.021  C24.523,23.186,24.529,23.191,24.531,23.193z"/>
<path fill="#77C31E" d="M24.512,23.093l-0.102-0.23l-0.006,0.106c0.021,0.047,0.043,0.09,0.062,0.125L24.512,23.093L24.512,23.093z"/>
<polygon fill="#77C31E" points="24.531,23.193 24.521,23.184 24.516,23.186 "/>
<path fill="#77C31E" d="M24.469,23.093c-0.021-0.036-0.043-0.077-0.062-0.125l-0.015,0.125H24.469z"/>
<path fill="#77C31E" d="M24.438,23.212H24.41v-0.04h-0.02l-0.009,0.057l0.066-0.006C24.447,23.221,24.445,23.214,24.438,23.212z"/>
<path fill="#77C31E" d="M24.561,23.29v0.074h-0.076c0-0.013,0-0.028,0-0.037l0,0V23.29c0,0-0.016-0.03-0.032-0.067l-0.065,0.006  l-0.011,0.176h0.188h0.08l-0.06-0.131C24.58,23.279,24.572,23.283,24.561,23.29z"/>
<path fill="#77C31E" d="M24.561,23.364V23.29c-0.006,0.003-0.012,0.008-0.022,0.017C24.555,23.327,24.561,23.352,24.561,23.364z"/>
<path fill="#77C31E" d="M24.602,23.093h-0.09l0.025,0.07C24.555,23.145,24.572,23.121,24.602,23.093z"/>
<path fill="#77C31E" d="M24.295,23.093c0.041,0,0.041,0.042,0.041,0.079h0.057v-0.079H24.295z"/>
<path fill="#77C31E" d="M24.521,23.184c0.002-0.008,0.008-0.015,0.016-0.021l-0.025-0.07h-0.043  C24.484,23.126,24.502,23.16,24.521,23.184z"/>
<path fill="#77C31E" d="M24.41,23.212h0.027c-0.015-0.032-0.027-0.063-0.027-0.077l0.039,0.037l0.035,0.04v-0.04l0.031,0.014  l0.006-0.002c-0.021-0.022-0.037-0.058-0.056-0.091h-0.073l-0.002,0.079h0.02V23.212z"/>
<path fill="#77C31E" d="M24.484,23.327c0,0.009,0,0.024,0,0.036h0.076l-0.045-0.047C24.506,23.322,24.496,23.327,24.484,23.327z"/>
<polygon fill="#77C31E" points="23.098,23.171 23.021,23.171 23.061,23.212 23.143,23.212 23.133,23.171 "/>
<path fill="#77C31E" d="M23.33,23.171v-0.037l0.041-0.042c0.008,0,0.02-0.001,0.035-0.003v-0.006l-0.148,0.038  c-0.004,0-0.004,0.007-0.004,0.013v0.037h-0.115h-0.006l0.01,0.04h0.148L23.33,23.171z"/>
<path fill="#77C31E" d="M23.406,23.083v0.006c0.018-0.006,0.035-0.013,0.059-0.019L23.406,23.083z"/>
<path fill="#77C31E" d="M23.465,23.07l0.059-0.014C23.508,23.057,23.484,23.064,23.465,23.07z"/>
<path fill="#77C31E" d="M23.229,23.057h0.039c-0.016-0.016-0.043-0.041-0.092-0.08v0.08C23.186,23.045,23.207,23.049,23.229,23.057z  "/>
<polygon fill="#77C31E" points="23.139,23.146 23.186,23.134 23.139,23.134 "/>
<path fill="#77C31E" d="M23.146,23.057L23.146,23.057h0.028C23.168,23.057,23.156,23.057,23.146,23.057z"/>
<path fill="#77C31E" d="M23.176,22.978l-0.029,0.079c0.011,0,0.021,0,0.029,0V22.978z"/>
<polygon fill="#77C31E" points="23.139,23.146 23.139,23.171 23.254,23.171 23.254,23.134 23.186,23.134 "/>
<rect x="24.557" y="23.21" fill="#77C31E" width="0.004" height="0.007"/>
<polygon fill="#77C31E" points="24.58,23.218 24.561,23.212 24.561,23.218 "/>
<polygon fill="#77C31E" points="24.561,23.218 24.561,23.218 24.561,23.223 "/>
<path fill="#77C31E" d="M24.561,23.223l0.004,0.006c0.019,0.011,0.029,0.02,0.049,0.031c0.015-0.005,0.021-0.012,0.027-0.012  l-0.061-0.029h-0.02V23.223L24.561,23.223z"/>
<path fill="#77C31E" d="M24.613,23.259c-0.021-0.012-0.031-0.021-0.049-0.03l0.02,0.045C24.594,23.27,24.604,23.264,24.613,23.259z"/>
<path fill="#77C31E" d="M24.555,23.218h0.006l-0.002-0.009l-0.026-0.016C24.537,23.205,24.551,23.212,24.555,23.218z"/>
<path fill="#77C31E" d="M24.5,23.221l0.055-0.003c-0.004-0.007-0.018-0.014-0.022-0.024l-0.017-0.01  C24.512,23.199,24.506,23.212,24.5,23.221z"/>
<polygon fill="#77C31E" points="24.561,23.225 24.561,23.223 24.561,23.218 24.555,23.218 "/>
<polygon fill="#77C31E" points="24.564,23.229 24.561,23.223 24.561,23.225 "/>
<path fill="#77C31E" d="M24.561,23.29c0.015-0.006,0.021-0.011,0.023-0.015l-0.02-0.047c0,0,0,0-0.004-0.002V23.29L24.561,23.29z"/>
<path fill="#77C31E" d="M24.496,23.236c0.01,0.02,0.025,0.043,0.041,0.068c0.012-0.007,0.018-0.012,0.023-0.016v-0.064  c0,0-0.004-0.004-0.009-0.007L24.5,23.221C24.5,23.225,24.496,23.23,24.496,23.236z"/>
<path fill="#77C31E" d="M24.484,23.29v0.037l0,0c0-0.015,0.006-0.028,0.006-0.037H24.484z"/>
<path fill="#77C31E" d="M24.5,23.221c0.006-0.01,0.012-0.021,0.016-0.037l-0.031-0.013v0.04c0,0.002,0.007,0.007,0.007,0.012  L24.5,23.221z"/>
<path fill="#77C31E" d="M24.496,23.236c0-0.006,0.004-0.012,0.004-0.016l-0.01,0.002C24.49,23.225,24.492,23.23,24.496,23.236z"/>
<path fill="#77C31E" d="M24.49,23.29c0,0.009-0.006,0.022-0.006,0.037c0.012,0,0.02-0.004,0.031-0.011L24.49,23.29z"/>
<path fill="#77C31E" d="M23.119,23.121l-0.016-0.064h-0.119c0.035,0,0.035,0.077,0.035,0.114l0.09-0.021L23.119,23.121z"/>
<path fill="#77C31E" d="M23.371,23.057h-0.104c0.049,0.043,0.006,0.014-0.039,0h-0.054v0.036h0.078v0.028h0.004  C23.273,23.083,23.338,23.057,23.371,23.057z"/>
<polygon fill="#77C31E" points="23.146,23.057 23.104,23.057 23.119,23.121 "/>
<polygon fill="#77C31E" points="23.109,23.15 23.021,23.171 23.098,23.171 "/>
<path fill="#77C31E" d="M23.254,23.134c0-0.006,0-0.013,0.004-0.013h-0.004V23.134z"/>
<polygon fill="#77C31E" points="23.119,23.121 23.109,23.15 23.127,23.148 "/>
<polygon fill="#77C31E" points="23.139,23.146 23.139,23.134 23.186,23.134 23.254,23.121 23.254,23.093 23.176,23.093   23.176,23.057 23.146,23.057 23.119,23.121 23.127,23.148 "/>
<path fill="#77C31E" d="M23.268,23.057h-0.039C23.273,23.07,23.314,23.1,23.268,23.057z"/>
<polygon fill="#77C31E" points="23.109,23.15 23.098,23.171 23.133,23.171 23.127,23.148 "/>
<polygon fill="#77C31E" points="23.127,23.148 23.133,23.171 23.139,23.171 23.139,23.146 "/>
<polygon fill="#77C31E" points="23.186,23.134 23.254,23.134 23.254,23.121 "/>
<path fill="#77C31E" d="M24.484,23.212h-0.047c0.008,0.002,0.01,0.009,0.012,0.011h0.035V23.212z"/>
<path fill="#77C31E" d="M24.529,23.307c0.02,0.026,0.031,0.041,0.031,0.058c0-0.013-0.009-0.037-0.023-0.06  C24.537,23.307,24.531,23.307,24.529,23.307z"/>
<path fill="#77C31E" d="M24.449,23.223c0.02,0.037,0.035,0.067,0.035,0.067v-0.067H24.449z"/>
<path fill="#77C31E" d="M24.449,23.171l-0.039-0.037c0,0.015,0.016,0.046,0.027,0.077h0.047L24.449,23.171z"/>
<path fill="#77C31E" d="M24.516,23.316l0.045,0.047c0-0.016-0.01-0.03-0.031-0.057C24.523,23.312,24.521,23.316,24.516,23.316z"/>
<polygon fill="#77C31E" points="24.49,23.223 24.484,23.212 24.484,23.223 "/>
<path fill="#77C31E" d="M24.529,23.307c0.002,0,0.008,0,0.008,0c-0.016-0.024-0.031-0.05-0.041-0.07  c0,0.003-0.004,0.005-0.004,0.007C24.502,23.27,24.516,23.293,24.529,23.307z"/>
<path fill="#77C31E" d="M24.492,23.243c-0.002-0.007-0.002-0.013-0.002-0.021h-0.006v0.067h0.006  C24.49,23.271,24.49,23.256,24.492,23.243z"/>
<path fill="#77C31E" d="M24.49,23.223l-0.006-0.011L24.49,23.223z"/>
<path fill="#77C31E" d="M24.49,23.223c0,0.008,0,0.014,0.002,0.021c0-0.002,0.004-0.005,0.004-0.007  C24.492,23.23,24.49,23.225,24.49,23.223L24.49,23.223z"/>
<path fill="#77C31E" d="M24.49,23.29l0.025,0.026c0.006,0,0.008-0.004,0.014-0.01c-0.014-0.014-0.027-0.037-0.037-0.063  C24.49,23.256,24.49,23.271,24.49,23.29z"/>
<polygon fill="#77C31E" points="25.104,22.978 25.109,22.983 25.111,22.978 "/>
<path fill="#77C31E" d="M25.143,22.978c-0.01,0-0.02,0-0.031,0v0.006l0.031,0.025V22.978z"/>
<path fill="#77C31E" d="M25.221,23.057c0-0.066,0-0.078-0.078-0.08v0.031l0.115,0.084L25.221,23.057z"/>
<path fill="#77C31E" d="M22.744,25.361l-0.07,0.009c0.018,0,0.039,0.014,0.07,0.03c0.002-0.014,0.006-0.02,0.008-0.03L22.744,25.361  z"/>
<path fill="#77C31E" d="M23.021,25.387v-0.018h0.133c-0.004-0.021,0.01-0.046,0.031-0.066l-0.439,0.059l0.006,0.009  c0,0.012-0.004,0.019-0.006,0.03c0.002,0,0.006,0.004,0.006,0.004L23.021,25.387z"/>
<path fill="#77C31E" d="M22.943,25.447v-0.039h-0.178C22.826,25.438,22.896,25.469,22.943,25.447z"/>
<path fill="#77C31E" d="M23.154,25.37h0.1v-0.078l-0.068,0.013C23.162,25.325,23.15,25.348,23.154,25.37z"/>
<path fill="#77C31E" d="M22.752,25.404c0.006,0.003,0.012,0.004,0.016,0.004h0.176h0.078v-0.021L22.752,25.404z"/>
<polygon fill="#77C31E" points="29.229,28.454 29.307,28.454 29.242,28.445 "/>
<polygon fill="#77C31E" points="28.611,28.372 28.842,28.454 29.229,28.454 29.242,28.445 "/>
<polygon fill="#77C31E" points="28.102,28.184 28.111,28.189 28.111,28.184 "/>
<path fill="#77C31E" d="M28.15,28.262L28.15,28.262L28.15,28.262z"/>
<path fill="#77C31E" d="M28.246,28.299h-0.059c0-0.01-0.017-0.023-0.037-0.037l0,0l0,0c-0.053-0.037-0.152-0.078-0.152-0.078  c0,0.041,0.035,0.041,0.035,0.115l0.232,0.027C28.268,28.303,28.256,28.303,28.246,28.299z"/>
<polygon fill="#77C31E" points="28.268,28.329 28.27,28.338 28.27,28.329 "/>
<path fill="#77C31E" d="M28.27,28.299h-0.021c0.008,0.004,0.021,0.004,0.021,0.027h0.004v-0.027H28.27z"/>
<path fill="#77C31E" d="M28.344,28.338c0,0.078,0.037,0,0.037,0.078h0.039c0-0.074-0.039-0.002-0.039-0.074l-0.025-0.004H28.344z"/>
<path fill="#77C31E" d="M28.535,28.493h0.076v0.038h0.309v-0.038c-0.033-0.039-0.23,0.038-0.27,0v-0.039h-0.139  C28.521,28.456,28.535,28.45,28.535,28.493z"/>
<path fill="#77C31E" d="M28.15,28.262L28.15,28.262h0.076c0,0.041,0.008,0.037,0.02,0.037h0.023v0.027l0.084,0.012h0.026  c0,0.004,0,0.004,0,0.004l0.229,0.027l-0.5-0.182C28.115,28.254,28.15,28.186,28.15,28.262z"/>
<path fill="#77C31E" d="M28.102,28.184l-0.104-0.035C27.998,28.182,28.059,28.184,28.102,28.184z"/>
<path fill="#77C31E" d="M28.512,28.454c-0.008,0-0.014-0.004-0.014-0.035v0.035H28.512z"/>
<path fill="#77C31E" d="M24.682,25.984c0.037,0,0.037,0.013,0.037,0.021v-0.021H24.682z"/>
<path fill="#77C31E" d="M24.641,25.872c-0.156-0.231-0.115-0.156,0,0.037h0.041v-0.037H24.641z"/>
<path fill="#77C31E" d="M24.822,26.178c-0.01-0.008-0.018-0.016-0.029-0.023C24.793,26.165,24.793,26.178,24.822,26.178z"/>
<path fill="#77C31E" d="M24.719,26.004v0.061h0.041v-0.041C24.719,26.023,24.719,26.014,24.719,26.004z"/>
<path fill="#77C31E" d="M24.832,26.178c-0.004,0-0.006,0-0.01,0c0.004,0.006,0.006,0.008,0.01,0.014l0,0V26.178z"/>
<path fill="#77C31E" d="M24.76,26.141c0.006,0,0.021,0.004,0.033,0.014C24.793,26.148,24.789,26.141,24.76,26.141z"/>
<path fill="#77C31E" d="M24.832,26.191L24.832,26.191L24.832,26.191z"/>
<path fill="#77C31E" d="M24.867,26.264C24.852,26.279,24.877,26.271,24.867,26.264L24.867,26.264z"/>
<path fill="#77C31E" d="M24.867,26.264c0.002-0.002,0.002-0.006,0.006-0.008c0-0.018-0.018-0.043-0.041-0.064v0.064  C24.855,26.256,24.863,26.258,24.867,26.264z"/>
<path fill="#77C31E" d="M25.604,26.449l0.041-0.038c0-0.035,0-0.076,0.035-0.076h-0.27v0.106c0.008,0.004,0.014,0.008,0.014,0.008  H25.604z"/>
<path fill="#77C31E" d="M25.424,26.449c0,0-0.006-0.004-0.014-0.008v0.008H25.424z"/>
</svg>