<?xml version="1.0" encoding="windows-1252"?>
<!-- Generator: Adobe Illustrator 16.0.1, SVG Export Plug-In . SVG Version: 6.00 Build 0)  -->
<!DOCTYPE svg PUBLIC "-//W3C//DTD SVG 1.1//EN" "http://www.w3.org/Graphics/SVG/1.1/DTD/svg11.dtd">
<svg version="1.1" id="Layer_1" xmlns="http://www.w3.org/2000/svg" xmlns:xlink="http://www.w3.org/1999/xlink" x="0px" y="0px" width="43px" height="51px" viewBox="0 0 43 51" enable-background="new 0 0 43 51" xml:space="preserve">
<path fill="#F72B0F" d="M17.939,28.029c-0.689-0.488-1.084-1.41-1.504-2.602c-0.42-1.188-0.666-2.018-0.853-2.553  c-0.187-0.537-0.313-0.584-0.338-0.723c-0.023-0.142,0.022-0.222,0.082-0.279c0,0,1.024,0.16,1.877,0.545  c0.853,0.387,0.827,0.457,1.562,0.945c0.734,0.489,1.025,1.504,1.225,1.877c0.197,0.377,0.88,0.66,0.972,0.705  c0.093,0.047,0.399,0.271,0.399,0.271c2.961,1.131,4.949,1.219,5.043,1.239c0.095,0.023,0.142,0.105,0.142,0.105  c-0.28,0.432-2.916,0.512-2.916,0.512s-0.907-0.021-2.401,0.412C19.732,28.917,18.626,28.518,17.939,28.029 M14.561,20.894  c-0.136,0.033-0.291-0.028-0.507,0.185c-0.067,0.065-0.151,0.217-0.157,0.363c-0.013,0.442-0.97-0.017-1.088-0.054  c-0.308-0.096-0.783-0.389-1.839-1.58c-1.057-1.19-1.43-3.639-1.463-4.608c-0.035-0.972,0.394-2.738,1.649-4.406  c1.261-1.67,3.455-1.957,3.742-1.957c0.289,0,0.562,0.035,0.58,0.203c0.019,0.17-0.035,0.17-0.035,0.373  c0,0,0.152,0.377,0.104,0.973c-0.116,1.357-1.412,2.416-2.043,2.943s-0.562,1.223-0.545,1.922c0.019,0.695,0.562,3.012,0.681,3.402  c0.12,0.393,0.891,1.743,1.01,1.907C14.77,20.733,14.695,20.863,14.561,20.894 M33.141,30.561c-0.205,0.43-0.529,0.514-0.731,0.546  c-0.203,0.032-0.271,0.153-0.511,0.442c-0.239,0.289-0.526,0.73-1.565,2.244c-1.035,1.516-4.149,0.938-5.888,0.58  c-1.733-0.359-1.987-0.902-2.127-2.109c-0.135-1.211,0.75-1.926,1.005-2.041c0.256-0.119,1.379-0.562,2.075-1.176  c0.699-0.611,1.822-0.729,1.992-0.729s0.629-0.032,2.159-0.206c1.531-0.171,3.08,0.24,4.134,0.562  c0.892,0.271,2.672,1.269,3.524,1.746V9.757c0-1.281-1.037-2.317-2.313-2.317h-2.373c0.847,0.721,2.125,2.146,2.34,3.575  c0.271,1.783-1.728,2.379-1.889,2.439c-0.164,0.057-0.231,0.09-0.231,0.09c-0.597-1.234-0.06-1.771,0.186-2.135  c0.246-0.361-0.114-0.537-0.487-0.699c-0.377-0.164-0.504-0.326-0.562-0.523c-0.059-0.198-0.092-0.479-0.229-0.771  c-0.143-0.293-0.41-0.34-0.654-0.361c-0.244-0.021-0.443-0.162-0.584-0.196c-0.139-0.035-0.35-0.035-0.35-0.035l0.012,0.198  c0,0-0.676-0.354-1.33-0.829c-0.465-0.341-0.588-0.449-0.771-0.752h-1.029C27,7.713,27.094,7.872,27.18,7.993  c0.117,0.168-0.199,0.606-0.502,0.703c-0.303,0.094-1.002-0.129-1.002-0.129c-0.99,0.27-0.955,0.102-2.135,0.276  c-1.178,0.179-1.389,0.957-1.596,1.437c-0.211,0.477,0.162,0.305-0.396,1.1c-0.561,0.789-1.762,1.047-2.254,1.035  c-0.49-0.012-0.336-0.07-0.314,1.471c0.025,1.539,0.246,1.328,0.758,1.457c0.515,0.129,0.713-0.559,0.793-0.664  c0.082-0.104,0.097-0.246-0.021-0.258c-0.569-0.057-0.909-0.172-1.073-0.326c-0.162-0.149,0.069-0.455,0.338-0.639  c0.268-0.189,1.073-0.619,1.307-0.727c0.233-0.105,0.91-0.326,1.215-0.386c0.304-0.061,0.351,0.209,0.418,0.353  c0.062,0.119,0.025,0.254,0.293,0.223c1.589-0.207,1.937,0.047,2.039,0.031c0.106-0.01,0.246-0.129,0.269-0.326  c0.024-0.197-0.535-0.312-0.791-0.383c-0.258-0.072-1.728-0.094-1.728-0.094s-0.371-0.291-0.442-0.99  c-0.07-0.699,1.688-1.41,2.321-1.586c0.63-0.176,2.158-0.396,3.896-0.164c1.738,0.231,2.472,1.317,2.775,2.508  c0.305,1.19-0.619,1.562-0.759,1.574c-0.142,0.014-0.442,0.305-0.571,0.522c-0.129,0.222-0.535,0.527-0.828,0.703  c-0.289,0.172-0.733,0.56-0.733,0.56s-0.013,0.291-0.373,0.43s-0.632-0.594-0.853-1.086c-0.222-0.488-0.42-0.699-0.604-1.082  c-0.187-0.385-0.489-0.467-0.606-0.467s-0.149,0.196-0.149,0.514c0,0.314-0.293,0.627-0.783,0.945  c-0.487,0.312-1.479-0.226-1.596-0.271c-0.117-0.047-0.679-0.266-0.841-0.338c-0.164-0.068-0.224-0.176-0.362-0.336  c-0.14-0.166-0.396,0.113-0.478,0.174c-0.082,0.06-0.197,0.162,0.012,0.433c0.21,0.268,0.873,0.489,1.189,0.584  c0.312,0.092,0.663,0.51,0.852,0.664c0.185,0.149,0.386,0.291,0.515,0.211c0.865-0.554,1.924-0.703,2.099-0.703  c0.174,0,0.91,0.012,0.549,1.131c-0.496,1.541-2.111,1.854-3.358,1.9c-1.248,0.051-1.89-0.267-1.959-0.267s-0.082,0.142-0.048,0.142  c0.035,0,0.443,0.29,0.748,0.502c0.304,0.211,0.814,0.536,1.023,0.536c0.211,0,0.899-0.231,1.133-0.293  c0.231-0.059,0.805-0.196,1.26-0.338c0.455-0.139,2.203-1.553,2.519-1.867c0.313-0.315,0.562-1.049,0.679-1.084  c0.115-0.032,0.338,0.15,0.513,0.177c0.176,0.022,0.549-0.502,0.643-0.873c0.095-0.377,0.117-0.422,0.224-0.447  c0.104-0.021,0.139,0.236,0.139,0.236s0.13,0.651,0.07,1.561c-0.058,0.908-0.142,1.146-0.408,1.912  c-0.27,0.771-1.188,0.854-1.491,0.949c-0.304,0.09-1.062,0.338-1.599,0.428c-0.537,0.094-0.817-0.197-1.178-0.359  c-0.129-0.061-0.83-0.176-0.888,0.021c-0.25,0.854,1.261,1.318,1.504,1.375c1.603,0.383,3.824-0.387,3.941-1.338  c0.176-1.441,0.338-1.611,0.524-1.822c0.187-0.209,0.687-0.033,0.687-0.033c0.188-0.188,1.062-0.828,1.062-0.828  s0.281-0.139,0.143-0.36c-0.141-0.223-0.234-1.119,0.873-1.004c1.107,0.116,1.48,1.682,1.48,1.682s0.442,0.918,0.127,3.264  c-0.312,2.343-3.438,4.747-6.285,5.644c-2.846,0.899-4.195,0.793-4.547,0.793c-0.351,0-1.049-0.277-1.281-0.324  c-0.234-0.047-0.828-0.443-1.025-0.525c-0.199-0.079-0.887-0.432-1.039-0.5c-0.152-0.07-0.688-0.411-1.004-0.631  c-0.312-0.221-0.396-0.455-0.502-0.688c-0.104-0.234-0.676-0.688-0.746-0.746c-0.068-0.059,0-0.152,0-0.152  c0.654,0.277,5.062,0.898,5.412,0.908c0.35,0.014,1.949,0.062,2.156,0.062c0.211,0,0.586,0.129,0.598-0.142  c0.01-0.268-1.225-0.457-1.365-0.465c-0.139-0.016-0.758-0.025-1.215-0.086c-0.455-0.055-1.549-1.758-1.701-1.98  c-0.152-0.219-0.209-0.161-0.488-0.305c-0.281-0.137-1.262-0.896-1.378-1.025c-0.115-0.127,0.093-0.616-0.021-0.745  c-0.116-0.13-0.491,0.079-0.784,0.215c-0.695,0.312-0.951-0.047-0.951-0.047l-0.955-0.998l-0.226,0.498c0,0,2.404,1.95,3.086,2.496  c0.681,0.543,0.183,0.725,0.183,0.725s-0.501,0.545-0.683,0.592c-0.182,0.045-1.635-0.229-2.768-0.545  c-1.137-0.316-1.498-0.68-2.631-1.676c-1.137-0.998-1.59-3.59-1.453-4.088c0.135-0.498,0.18-1.269,0.09-1.494  c-0.09-0.229-0.271-1,0.137-1s0.726,0.908,1.681,1.996c0.951,1.088,1.994,1.451,2.401,1.223c0.41-0.227-0.135-0.906-0.36-1.313  c-0.228-0.406-0.183-0.541-1.09-1.677c-0.908-1.135-0.271-1.998-0.091-2.403c0.181-0.408,0.728-1.185,0.861-2.453  c0.072-0.68,0.344-1.137,0.734-1.543h-9.67c-1.281,0-2.316,1.037-2.316,2.317v8.229c0.633,0.211,2.039,0.693,2.289,0.902  c0.326,0.27,3.225,2.457,3.115,6.375c-0.014,0.424,0.131,0.559,0.314,0.762c0.104,0.117,1.119,1.096,0.942,1.701  c-0.467-0.688-0.932-1.047-1.069-1.117c-0.142-0.072-0.295-0.154-0.398,0.104c-0.104,0.256-0.197,0.943-1.586,0.746  c-1.271-0.182-2.318-0.397-3.607-2.147v9.931c0,1.281,1.035,2.313,2.316,2.313h1.844c0.207-0.414,0.318-0.681,0.473-1.032  c0.222-0.514,0.938-2.334,1.275-2.914c0.342-0.576,0.834-1.343,0.834-1.343s-0.152-1.211-0.117-1.905  c0.031-0.699,0.408-2.248,0.408-2.248s0.135-0.254,0.066-0.526c-0.066-0.271-0.17-0.558-0.1-1.054  c0.067-0.492,0.288-1.258,0.678-1.617c0.393-0.354,0.666-0.561,0.887-0.543c0.221,0.018,0.561,0.341,1.004,1.377  c0,0-0.238,0.033-0.426-0.016c-0.188-0.052-0.066,0.1-0.035,0.153c0.035,0.049,0.477,0.392,0.258,0.813  c-0.223,0.426-1.283,1.705-1.057,2.006c0.152,0.207,0.238,0.019,0.477-0.237c0.238-0.255,0.766-0.864,0.85-0.83  c0.088,0.03-0.17,0.918-1.088,1.871c0,0,0.256,0.118,0,0.597c-0.254,0.475-0.629,0.969-0.68,1.066  c-0.053,0.104-0.053,0.343,0.102,0.207c0.152-0.137,1.601-1.295,3.013-1.295c1.022,0,1.106,0.314,1.293,0.412  c0.17,0.082,0.426,0.373,0.476,0.527c0.053,0.147,0.12,0.268,0.375,0.354c0.256,0.086,1.09,0.289,1.209,1.377  c0,0,0.44,0.546-0.103,1.38c0,0,4.264-0.576,6.071,3.418h8.459c1.276,0,2.313-1.033,2.313-2.314v-4.465  c-0.723-0.426-2.289-0.619-2.502-0.619C34.449,30.156,33.343,30.137,33.141,30.561"/>
</svg>