<?xml version="1.0" encoding="windows-1252"?>
<!-- Generator: Adobe Illustrator 16.0.1, SVG Export Plug-In . SVG Version: 6.00 Build 0)  -->
<!DOCTYPE svg PUBLIC "-//W3C//DTD SVG 1.1//EN" "http://www.w3.org/Graphics/SVG/1.1/DTD/svg11.dtd">
<svg version="1.1" id="Layer_1" xmlns="http://www.w3.org/2000/svg" xmlns:xlink="http://www.w3.org/1999/xlink" x="0px" y="0px" width="43px" height="51px" viewBox="0 0 43 51" enable-background="new 0 0 43 51" xml:space="preserve">
<path fill="#FF8300" d="M15.7,24.018c0,0-0.423-0.187-1.601-0.341c0,0-2.365-0.182-3.625-0.715c0,0-0.01-0.004-0.029-0.012  c-0.272-0.107-2.479-0.977-3.038-1.408c0,0,0.016,0.024,0.045,0.067c0.272,0.433,1.823,2.729,4.172,3.562  c0,0,1.321,0.547,3.015,0.479c0,0,1.688-0.246,2.151,0.664c0,0,0.012-0.041,0.03-0.109C16.921,25.825,17.113,24.591,15.7,24.018z"/>
<path fill="#FF8300" d="M15.302,30.591c-0.521,0-1.879,0.191-2.782,2.054c0,0-1.002,2.671-2.037,3.345c0,0-0.662,0.551-1.703,0.551  c-0.057,0-0.404-0.031-0.465-0.035c0.403,0.17,0.785,0.312,1.223,0.383c0.576,0.097,1.336,0.24,1.918,0.107  c1.143-0.26,1.861-1.01,2.258-2.098c0.113-0.312,0.154-0.632,0.221-0.953c0.14-0.668,0.354-1.326,0.615-1.955  c0.205-0.49,0.479-1.123,0.971-1.386c0,0-0.063-0.013-0.18-0.013H15.302z"/>
<path fill="#FF8300" d="M31.677,26.521c-0.598,0-1.194-0.05-1.776-0.169c-0.394-0.079-0.774-0.193-1.17-0.27  c-0.34-0.064-0.685-0.109-1.028-0.133c-0.16-0.011-0.32-0.017-0.479-0.017c-0.668,0-1.052,0.097-1.052,0.097  c-1.409,0.369-2.403,1.032-2.782,1.309c-0.109,0.082-0.171,0.133-0.171,0.133c1.959-0.455,4.087,0.781,4.087,0.781  c1.772,0.844,3.881,0.521,3.881,0.521c5.071-0.936,7.637-4.699,7.731-4.843l0.004-0.007c-1.396,1.062-4.211,2.009-4.211,2.009  C33.68,26.396,32.583,26.521,31.677,26.521z"/>
<path fill="#FF8300" d="M27.325,19.661c0,0,1.788-1.537,3.416-2.029c0,0-0.043-0.059-0.166-0.112  c-0.101-0.038-0.248-0.075-0.468-0.075c-0.127,0-0.274,0.012-0.446,0.043c0,0-0.162,0.023-0.455,0.023  c-0.36,0-0.929-0.04-1.636-0.227c0,0-0.502-0.107-1.198-0.107c-1.043,0-2.517,0.244-3.392,1.459c0,0-1.067,1.341-1.999,3.589  c0,0-1.707,3.569-4.002,5.021c0,0-2.416,1.86-5.696,2.328c0,0-0.867,0.161-2.039,0.161c-0.908,0-2-0.097-3.004-0.442  c0,0-2.878-0.688-4.4-2.062c0,0-0.071,0.334-0.071,0.816v0.045c0,0.562,0.1,1.311,0.498,1.977c0,0,0.053,0.117,0.135,0.26H2.398  c0.002,0.002,0.006,0.008,0.009,0.01c0.002,0.006,0.004,0.008,0.006,0.014h0.002c0.272,0.457,0.946,1.322,2.188,1.419  c0,0,1.242,0.226,3.176-0.599c0,0,3.244-1.174,5.222-1.221c0,0,4.33,0.043,6.172-0.617c1.392-0.494,2.535-1.115,3.722-2.604  c1.187-1.488,1.494-2.735,1.877-3.533C24.771,23.191,25.919,20.798,27.325,19.661z"/>
<path fill="#FF8300" d="M10.378,14.956c0,0,2.396,1.367,4.147,2.047c0,0,4.525,1.604,4.523,4.539c0,0,0.17,1.608,0.023,2.25  l0.016-0.021c0.182-0.246,2.248-3.125,1.16-5.709c0,0-0.84-1.862-4.418-3.478c0,0-3.963-1.701-5.838-3.264  c0,0-3.127-2.737-3.355-5.12L6.634,6.205c-0.051,0.09-1.105,2.011,0.031,4.646C6.667,10.855,7.495,13.186,10.378,14.956z"/>
<path fill="#FF8300" d="M6.527,18.255c0,0,1.207,1.131,2.498,1.664c0,0,2.072,0.888,3.916,1.397c0,0,3.681,0.739,4.287,2.276  c0,0,0.584,0.918,0.422,1.795c0,0,0.019-0.028,0.041-0.082l0,0c0.103-0.23,0.373-0.922,0.41-1.789v-0.379  c-0.016-0.364-0.078-0.752-0.215-1.143c0,0-0.266-1.244-3.365-2.422c0,0-4.334-1.5-5.764-2.437c0,0-2.963-1.531-3.895-3.949  c0,0-0.035,0.367-0.008,0.921C4.911,15.216,5.21,17.075,6.527,18.255z"/>
<path fill="#FF8300" d="M10.907,32.396c0.864-1.029,1.514-1.445,1.885-1.615c0.092-0.033,0.179-0.074,0.271-0.101  c0.054-0.015,0.09-0.021,0.09-0.021l-0.026-0.004c-0.106-0.021-0.217-0.027-0.33-0.027c-1.555,0-3.649,1.576-3.649,1.576  c-1.351,0.881-2.5,1.221-2.5,1.221c-0.363,0.1-0.699,0.137-1.006,0.137c-0.972,0-1.64-0.382-1.9-0.562  c-0.082-0.051-0.121-0.088-0.121-0.088c0.365,0.582,0.787,1.01,0.787,1.01c1.514,1.685,3.25,1.223,3.25,1.223  C8.859,34.805,10.907,32.396,10.907,32.396z"/>
<path fill="#FF8300" d="M41.177,17.501l-0.008,0.01c-0.073,0.102-0.162,0.199-0.265,0.307v-0.002  c-0.846,0.877-2.487,1.945-2.487,1.945c-1.071,0.805-2.369,1.24-3.679,1.475c-0.782,0.139-1.594,0.107-2.401,0.084  c-1.067-0.035-2.135-0.074-3.144,0.27c-2.647,0.879-4.379,3.744-4.379,3.744c0.041-0.023,0.082-0.049,0.123-0.078  c-0.002,0.002-0.004,0.004-0.006,0.006c0.776-0.471,1.668-0.873,2.56-1.067c0.473-0.104,1.053-0.146,1.448-0.116  c1.065,0.084,2.123,0.191,3.192,0.174c0.076,0,0.146-0.002,0.218-0.004c3.342-0.242,5.438-1.75,5.438-1.75  c3.496-2.205,3.441-5.068,3.441-5.068C41.214,17.45,41.195,17.475,41.177,17.501z"/>
</svg>