<?xml version="1.0" encoding="windows-1252"?>
<!-- Generator: Adobe Illustrator 16.0.1, SVG Export Plug-In . SVG Version: 6.00 Build 0)  -->
<!DOCTYPE svg PUBLIC "-//W3C//DTD SVG 1.1//EN" "http://www.w3.org/Graphics/SVG/1.1/DTD/svg11.dtd">
<svg version="1.1" id="Layer_1" xmlns="http://www.w3.org/2000/svg" xmlns:xlink="http://www.w3.org/1999/xlink" x="0px" y="0px" width="43px" height="51px" viewBox="0 0 43 51" enable-background="new 0 0 43 51" xml:space="preserve">
<path fill="#712F87" d="M25.146,10.686c0-2.161-2.15-1.938-2.15-1.938c-1.541,0-2.517,0.989-2.517,2.855  c0,1.632,1.274,6.941,1.274,6.941h-6.899c0,0-0.198-1.127-0.198-2.411c0-6.487,5.329-8.68,9.179-8.68  c3.851,0,7.249,1.394,7.249,4.873c0,3.479-3.309,3.229-3.309,3.229c-2.51,0-2.7-2.432-2.7-2.94  C25.075,12.105,25.146,11.479,25.146,10.686z"/>
<path fill="#712F87" d="M31.382,28.82c0,5.961-2.68,8.698-6.308,8.698c-1.155,0-1.93,0.196-5.521-2.737  c-2.18,2.641-4.551,2.764-5.443,2.764c-0.911,0-4.021-0.35-4.021-3.638c0-4.016,3.905-4.189,4.988-4.189  c1.081,0,2.434,0.268,2.434,0.268c0-1.525-1.234-4.668-1.234-4.668h5.814c0,3.101-0.9,5.666-0.9,5.666s2.428,0.981,4.42,0.981  c3.488,0,3.99-1.203,4.75-3.145 M17.651,33.167c0,0-1.045-1.472-3.387-1.472c-2.344,0-2.556,1.755-2.556,2.257  s0.158,2.23,2.442,2.23C16.438,36.184,17.651,34.123,17.651,33.167z"/>
<polyline fill="#712F87" points="17.558,24.425 17.558,19.413 19.623,19.413 19.623,21.747 22.295,19.413 24.463,19.413   21.904,21.788 25.324,24.425 22.854,24.425 19.623,22.239 19.623,24.425 17.558,24.425 "/>
<rect x="26.167" y="19.413" fill="#712F87" width="2.067" height="5.012"/>
<path fill="#712F87" d="M29.979,19.366c0,0,2.066,0,2.652,0s3.67-0.245,3.67,1.435c0,1.681-2.156,1.742-2.423,1.742  s-1.833,0-1.833,0v1.882h-2.066V19.366z M32.047,21.562c0,0,0.83,0,1.34,0s1-0.093,1-0.627c0-0.537-0.682-0.582-1.051-0.582  c-0.368,0-1.289,0-1.289,0V21.562z"/>
<path fill="#712F87" d="M9.593,19.413H7.674c0,0-0.002,2.123-0.002,2.759c0,0.637-0.271,2.373,4.106,2.373s4.089-1.736,4.089-2.368  c0-0.633,0-2.765,0-2.765h-1.944c0,0,0.006,2.299,0.006,2.736c0,0.707-0.906,1.425-2.152,1.425c-1.366,0-2.192-0.755-2.192-1.48  C9.584,21.368,9.593,19.413,9.593,19.413z"/>
</svg>